# xmcd
#
# Track frame offsets:
#	182
#	9002
#	25962
#	45865
#	75395
#	78720
#	107717
#	117045
#	138287
#	158877
#	182022
#	209217
#	228007
#	252460
#
# Disc length: 3506 seconds
# Revision: 0
# Processed by: cddbd v1.5.2PL0 Copyright (c) Steve Scherf et al.
# Submitted via: dBpowerAMP V12.0
#
DISCID=a50db00e
DTITLE=Erykah Badu - Baduizm
DYEAR=1997
DGENRE=R&B
TTITLE0=Rimshot (Intro)
TTITLE1=On and On
TTITLE2=Appletree
TTITLE3=Otherside of the Game
TTITLE4=Sometimes (Mix #9)
TTITLE5=Next Lifetime
TTITLE6=Afro (Freestyle Skit)
TTITLE7=Certainly
TTITLE8=4 Leaf Clover
TTITLE9=No Love
TTITLE10=Drama
TTITLE11=Sometimes...
TTITLE12=Certainly (Flipped It)
TTITLE13=Rimshot (Outro)
EXTD=
EXTT0=
EXTT1=
EXTT2=
EXTT3=
EXTT4=
EXTT5=
EXTT6=
EXTT7=
EXTT8=
EXTT9=
EXTT10=
EXTT11=
EXTT12=
EXTT13=
PLAYORDER=
